# xmcd
# Track frame offsets:
# 150
# 2630
# 21160
# 35070
# 46617
# 58235
# 68682
# 84065
# 100000
# 110775
# 125352
# 140560
# 153205
# 168140
#
# Disc length: 2416 seconds
# Revision: 0
# Processed by: cddbd v1.4PL0 Copyright (c) Steve Scherf et al.
# Submitted via: VisiTrax 2.9.5.180 - For more info visit www.synapsa.com
#
DISCID=a8096e0e
DTITLE=Don Williams - The Ties That Bind: CD 1
DYEAR=2000
DGENRE=
TTITLE0=Introduction
TTITLE1=Good Ole Boys Like Me
TTITLE2=She's In Love With A Rodeo Man
TTITLE3=Some Broken Hearts Never Mend
TTITLE4=The Ties That Bind
TTITLE5=Louisianna Saturday Night
TTITLE6=Till The Rivers All Run Dry
TTITLE7=I Recall A Gypsy Woman
TTITLE8=It Must Be Love
TTITLE9=Lay Down Beside Me
TTITLE10=Lord, I Hope This Day Is Good
TTITLE11=I'm Just A Country Boy
TTITLE12=Tulsa Time
TTITLE13=Amanda
EXTD=Recorded Live
EXTT0=
EXTT1=
EXTT2=
EXTT3=
EXTT4=
EXTT5=
EXTT6=
EXTT7=
EXTT8=
EXTT9=
EXTT10=
EXTT11=
EXTT12=
EXTT13=
PLAYORDER=
